<svg width="32" height="32" viewBox="0 0 32 32" fill="none" xmlns="http://www.w3.org/2000/svg">
<path d="M22.6666 2.66667H9.33329C5.65139 2.66667 2.66663 5.65144 2.66663 9.33334V22.6667C2.66663 26.3486 5.65139 29.3333 9.33329 29.3333H22.6666C26.3485 29.3333 29.3333 26.3486 29.3333 22.6667V9.33334C29.3333 5.65144 26.3485 2.66667 22.6666 2.66667Z" stroke="#777777" stroke-width="2" stroke-linecap="round" stroke-linejoin="round"/>
<path d="M21.3332 15.16C21.4978 16.2697 21.3082 17.403 20.7916 18.3987C20.2749 19.3944 19.4574 20.2019 18.4554 20.7062C17.4534 21.2106 16.3178 21.3861 15.2103 21.2079C14.1027 21.0297 13.0796 20.5068 12.2863 19.7136C11.4931 18.9203 10.9702 17.8972 10.792 16.7896C10.6138 15.6821 10.7893 14.5465 11.2937 13.5445C11.798 12.5425 12.6055 11.725 13.6012 11.2083C14.5969 10.6917 15.7302 10.5021 16.8399 10.6667C17.9718 10.8345 19.0197 11.362 19.8288 12.1711C20.6379 12.9802 21.1654 14.0281 21.3332 15.16Z" stroke="#777777" stroke-width="2" stroke-linecap="round" stroke-linejoin="round"/>
<path d="M23.3333 8.66667H23.3466" stroke="#777777" stroke-width="2" stroke-linecap="round" stroke-linejoin="round"/>
</svg>
