<svg width="32" height="32" viewBox="0 0 32 32" fill="none" xmlns="http://www.w3.org/2000/svg">
<path d="M30.6667 4C29.3899 4.90063 27.9762 5.58947 26.48 6.04C25.677 5.11668 24.6098 4.46225 23.4228 4.16523C22.2357 3.86821 20.986 3.94292 19.8428 4.37927C18.6996 4.81561 17.718 5.59253 17.0307 6.60495C16.3434 7.61737 15.9836 8.81644 16 10.04V11.3733C13.6569 11.4341 11.3351 10.9144 9.24139 9.86059C7.1477 8.80677 5.34713 7.25151 4.00004 5.33333C4.00004 5.33333 -1.33329 17.3333 10.6667 22.6667C7.92074 24.5306 4.64958 25.4652 1.33337 25.3333C13.3334 32 28 25.3333 28 9.99999C27.9988 9.6286 27.9631 9.25812 27.8934 8.89333C29.2542 7.55132 30.2145 5.85695 30.6667 4V4Z" stroke="#777777" stroke-width="2" stroke-linecap="round" stroke-linejoin="round"/>
</svg>
