<svg xmlns="http://www.w3.org/2000/svg" xmlns:xlink="http://www.w3.org/1999/xlink" width="823" height="732" viewBox="0 0 823 732">
  <defs>
    <clipPath id="clip-path">
      <rect id="Rectangle_54" data-name="Rectangle 54" width="823" height="732" transform="translate(1030 239)" fill="#fff" stroke="#707070" stroke-width="1"/>
    </clipPath>
  </defs>
  <g id="Mask_Group_2" data-name="Mask Group 2" transform="translate(-1030 -239)" clip-path="url(#clip-path)">
    <g id="Table_tennis-rafiki" data-name="Table tennis-rafiki" transform="translate(968 140.103)">
      <g id="freepik--background-complete--inject-12">
        <rect id="Rectangle_30" data-name="Rectangle 30" width="952" height="0.476" transform="translate(0 728.09)" fill="#ebebeb"/>
        <rect id="Rectangle_31" data-name="Rectangle 31" width="185.83" height="0.476" transform="translate(632.337 741.056)" fill="#ebebeb"/>
        <rect id="Rectangle_32" data-name="Rectangle 32" width="88.86" height="0.476" transform="translate(550.256 752.061)" fill="#ebebeb"/>
        <rect id="Rectangle_33" data-name="Rectangle 33" width="36.538" height="0.476" transform="translate(820.072 758.725)" fill="#ebebeb"/>
        <rect id="Rectangle_34" data-name="Rectangle 34" width="176.177" height="0.476" transform="translate(240.799 752.289)" fill="#ebebeb"/>
        <rect id="Rectangle_35" data-name="Rectangle 35" width="37.89" height="0.476" transform="translate(185.964 752.289)" fill="#ebebeb"/>
        <rect id="Rectangle_36" data-name="Rectangle 36" width="62.565" height="0.476" transform="translate(110.032 744.255)" fill="#ebebeb"/>
        <path id="Path_155" data-name="Path 155" d="M451.248,643.171H83.6A10.872,10.872,0,0,1,72.752,632.3V115.5A10.872,10.872,0,0,1,83.6,104.72H451.248a10.872,10.872,0,0,1,10.872,10.872V632.3A10.872,10.872,0,0,1,451.248,643.171ZM83.6,105.1a10.4,10.4,0,0,0-10.377,10.4V632.3A10.4,10.4,0,0,0,83.6,642.7H451.248a10.415,10.415,0,0,0,10.4-10.4V115.5a10.415,10.415,0,0,0-10.4-10.4Z" fill="#ebebeb"/>
        <path id="Path_156" data-name="Path 156" d="M863.1,643.171H495.44A10.891,10.891,0,0,1,484.568,632.3V115.5A10.891,10.891,0,0,1,495.44,104.72H863.1A10.872,10.872,0,0,1,873.936,115.5V632.3A10.872,10.872,0,0,1,863.1,643.171ZM495.44,105.1a10.415,10.415,0,0,0-10.4,10.4V632.3a10.415,10.415,0,0,0,10.4,10.4H863.1a10.415,10.415,0,0,0,10.4-10.4V115.5a10.415,10.415,0,0,0-10.4-10.4Z" fill="#ebebeb"/>
        <rect id="Rectangle_37" data-name="Rectangle 37" width="110.775" height="160.145" transform="translate(254.146 567.925)" fill="#e6e6e6"/>
        <rect id="Rectangle_38" data-name="Rectangle 38" width="145.58" height="160.145" transform="translate(254.165 728.09) rotate(180)" fill="#f0f0f0"/>
        <rect id="Rectangle_39" data-name="Rectangle 39" width="256.355" height="16.584" transform="translate(108.566 554.292)" fill="#e6e6e6" opacity="0.7"/>
        <rect id="Rectangle_40" data-name="Rectangle 40" width="116.353" height="15.327" transform="translate(254.146 552.598)" fill="#e6e6e6"/>
        <rect id="Rectangle_41" data-name="Rectangle 41" width="151.178" height="15.327" transform="translate(254.146 567.925) rotate(180)" fill="#f0f0f0"/>
        <rect id="Rectangle_42" data-name="Rectangle 42" width="90.63" height="98.856" transform="translate(407.17 629.234)" fill="#ebebeb"/>
        <rect id="Rectangle_43" data-name="Rectangle 43" width="119.095" height="98.856" transform="translate(407.17 728.071) rotate(180)" fill="#f5f5f5"/>
        <rect id="Rectangle_44" data-name="Rectangle 44" width="209.726" height="13.576" transform="translate(288.056 618.057)" fill="#e6e6e6" opacity="0.7"/>
        <rect id="Rectangle_45" data-name="Rectangle 45" width="95.2" height="12.547" transform="translate(407.17 616.687)" fill="#ebebeb"/>
        <rect id="Rectangle_46" data-name="Rectangle 46" width="123.684" height="12.547" transform="translate(407.17 629.215) rotate(180)" fill="#f5f5f5"/>
        <circle id="Ellipse_3" data-name="Ellipse 3" cx="39.717" cy="39.717" r="39.717" transform="translate(468.708 648.655)" fill="#f5f5f5"/>
        <circle id="Ellipse_4" data-name="Ellipse 4" cx="28.408" cy="28.408" r="28.408" transform="translate(525.713 671.255)" fill="#ebebeb"/>
        <rect id="Rectangle_47" data-name="Rectangle 47" width="38.004" height="176.634" transform="translate(752.689 551.456)" fill="#e0e0e0"/>
        <path id="Path_157" data-name="Path 157" d="M621.961,728.09H775.613L794.6,519.373H640.963Z" fill="#e6e6e6"/>
        <path id="Path_158" data-name="Path 158" d="M614.021,728.09H767.655l18.983-208.716H633Z" fill="#f0f0f0"/>
        <path id="Path_159" data-name="Path 159" d="M746.654,704.975l14.794-162.506H654L639.23,704.975Z" fill="#fff"/>
      </g>
      <g id="freepik--Shadow--inject-12">
        <ellipse id="freepik--path--inject-12" cx="369.167" cy="21.553" rx="369.167" ry="21.553" transform="translate(106.833 770.968)" fill="#f5f5f5"/>
      </g>
      <g id="freepik--Window--inject-12">
        <rect id="Rectangle_48" data-name="Rectangle 48" width="369.052" height="282.953" transform="translate(477.428 193.999)" fill="#2DADC2"/>
        <rect id="Rectangle_49" data-name="Rectangle 49" width="369.052" height="282.953" transform="translate(477.428 193.999)" fill="#fff" opacity="0.8"/>
        <rect id="Rectangle_50" data-name="Rectangle 50" width="369.052" height="282.953" transform="translate(100.436 193.999)" fill="#2DADC2"/>
        <rect id="Rectangle_51" data-name="Rectangle 51" width="369.052" height="282.953" transform="translate(100.436 193.999)" fill="#fff" opacity="0.8"/>
        <g id="Group_5" data-name="Group 5" opacity="0.2">
          <path id="Path_160" data-name="Path 160" d="M420.784,413.872H338.436V436.34H319.663v14.984H309.172V436.34h-31.4v14.984H220.636v7.54H153.6V423.926H123.474v28.427H100.436v24.6H469.488V451.419h-48.7Z" fill="#2DADC2"/>
        </g>
        <path id="Path_161" data-name="Path 161" d="M335.237,476.99H274.385L325.851,194h60.871Z" fill="#fff" opacity="0.5"/>
        <path id="Path_162" data-name="Path 162" d="M823.442,452.352V423.926h-30.1v34.938H726.281v-7.54H663.772V436.34H608.48V413.872H551.056v37.547H477.428v25.533H846.48v-24.6Z" fill="#2DADC2" opacity="0.2"/>
        <path id="Path_163" data-name="Path 163" d="M684.678,476.99H605.358L656.842,194h79.3Z" fill="#fff" opacity="0.5"/>
        <path id="Path_164" data-name="Path 164" d="M255.612,476.99H225.186L276.651,194h30.426Z" fill="#fff" opacity="0.5"/>
        <path id="Path_165" data-name="Path 165" d="M552.16,263.456c1.618-3.084,5.712-5.712,10.548-6.854a24.447,24.447,0,0,1,16.489-7.787,21.137,21.137,0,0,1,5.464.248,34.272,34.272,0,0,1,21.439-9.52c8.339-.647,14.661,1.9,16.869,6.169a27.283,27.283,0,0,1,4.322-.7c6.417-.5,11.234,1.58,12.624,4.988a20.43,20.43,0,0,1,6.835-1.752c6.531-.514,10.872,2.494,9.71,6.721a7.787,7.787,0,0,1-1.542,2.78c9.33.857,16.908,3.2,12.243,6.055h0l-129.777,10.11h0C533.844,267.874,543.668,265,552.16,263.456Z" fill="#fff"/>
        <path id="Path_166" data-name="Path 166" d="M381.828,393.29a7.978,7.978,0,0,1,5.274-3.427,12.148,12.148,0,0,1,8.244-3.808,9.73,9.73,0,0,1,2.723.133,17.136,17.136,0,0,1,10.72-4.741c4.17-.324,7.33.952,8.435,3.084a13.693,13.693,0,0,1,2.152-.343c3.218-.267,5.712.781,6.321,2.494a10.359,10.359,0,0,1,3.427-.895c3.256-.248,5.426,1.257,4.855,3.37a3.922,3.922,0,0,1-.781,1.39c4.665.438,8.454,1.6,6.131,3.027h0l-64.888,5.046h0C372.689,395.5,377.6,394.128,381.828,393.29Z" fill="#fff"/>
        <path id="Path_167" data-name="Path 167" d="M716.761,367.758a4.074,4.074,0,0,1,.114-1.637c.99-3.56,6.264-6.8,11.786-7.235a13.1,13.1,0,0,1,3.275.133A21.934,21.934,0,0,1,745.625,353a15.536,15.536,0,0,1,7.349.99,26.446,26.446,0,0,1,13.975-5.274c8.663-.685,14.432,3.313,12.89,8.911l-.114.343h.4c4.189-.343,6.988,1.6,6.226,4.3a5.522,5.522,0,0,1-1.637,2.475c4.4.724,7.235,1.9,4.779,3.5h0l-83.3,6.474h0C703.795,370.518,711.163,368.71,716.761,367.758Z" fill="#fff"/>
        <path id="Path_168" data-name="Path 168" d="M160.7,262.752a3.808,3.808,0,0,1,.114-1.637c.99-3.56,6.264-6.8,11.786-7.235a12.947,12.947,0,0,1,3.256.133A21.991,21.991,0,0,1,189.543,248a15.536,15.536,0,0,1,7.349.99,26.447,26.447,0,0,1,13.975-5.274c8.663-.685,14.432,3.313,12.871,8.911a2.418,2.418,0,0,1-.114.343h.4c4.189-.343,6.988,1.6,6.245,4.3a5.712,5.712,0,0,1-1.637,2.475c4.4.7,7.216,1.9,4.76,3.5h0l-83.281,6.474h0C147.731,265.589,155.081,263.761,160.7,262.752Z" fill="#fff"/>
      </g>
      <g id="freepik--character-1--inject-12">
        <path id="Path_169" data-name="Path 169" d="M131.052,740.98c-4.436,14.585-9.2,29.969-9.2,29.969l11.272,3.351L144.38,747Z" fill="#ce7a63"/>
        <path id="Path_170" data-name="Path 170" d="M228.842,754.346c2.589,15.042,5.236,30.94,5.236,30.94l11.557-2.075-2.171-29.455Z" fill="#ce7a63"/>
        <path id="Path_171" data-name="Path 171" d="M242.322,300.185c7.007,5.6,6.95,14.547,1.542,21.306s-14.128,8.777-21.134,3.18-9.672-16.736-4.265-23.5S235.3,294.568,242.322,300.185Z" fill="#2DADC2"/>
        <path id="Path_172" data-name="Path 172" d="M247.52,313.456l-10.739,13.328a15.92,15.92,0,0,0,4.151-2.437,1.123,1.123,0,0,1,1.428,0l13.023,10.948c1.123.952,5.712-4.76,4.512-5.712l-13.537-10.3a1.123,1.123,0,0,1-.324-1.39,15.956,15.956,0,0,0,1.485-4.436Z" fill="#2DADC2"/>
        <path id="Path_173" data-name="Path 173" d="M247.52,313.456l-10.739,13.328a15.92,15.92,0,0,0,4.151-2.437,1.123,1.123,0,0,1,1.428,0l13.023,10.948c1.123.952,5.712-4.76,4.512-5.712l-13.537-10.3a1.123,1.123,0,0,1-.324-1.39,15.956,15.956,0,0,0,1.485-4.436Z" fill="#fff" opacity="0.6"/>
        <path id="Path_174" data-name="Path 174" d="M158.756,436.816l-9.025,8.244c-3.046,2.761-5.979,5.6-8.835,8.378s-5.522,5.617-7.749,8.244c-1.1,1.276-2.037,2.589-2.666,3.465-.3.438-.5.781-.552.743s.1-.5,0-2.113l-.381-2.113c.819,4,1.656,8.168,2.57,12.319l2.723,12.624c1.752,8.492,3.5,17.136,4.8,25.742h0a7.426,7.426,0,0,1-13.709,4.893c-2.3-3.808-4.341-7.787-6.378-11.748s-3.9-7.959-5.712-12-3.618-8.111-5.236-12.281-3.275-8.378-4.7-12.795a7.083,7.083,0,0,1-.324-1.5v-.609a21.858,21.858,0,0,1,.8-8.53,34.765,34.765,0,0,1,1.9-5.274,57.121,57.121,0,0,1,4.36-7.5,106.624,106.624,0,0,1,9.177-11.6c3.142-3.56,6.4-6.816,9.71-10s6.645-6.131,10.434-9.158A14.7,14.7,0,0,1,159,436.587Z" fill="#cf7a64"/>
        <path id="Path_175" data-name="Path 175" d="M137.7,510.481l7.616,6.074-14.223,9.92a29.243,29.243,0,0,1-4.836-6.892,7.616,7.616,0,0,1,3.5-10.015h0a7.616,7.616,0,0,1,7.94.914Z" fill="#ce7a63"/>
        <path id="Path_176" data-name="Path 176" d="M146.989,531.464l-5.56,2.647a5.007,5.007,0,0,1-6.264-1.675l-4.132-5.96,14.223-9.92,4.056,8.149a4.989,4.989,0,0,1-2.323,6.759Z" fill="#ce7a63"/>
        <path id="Path_177" data-name="Path 177" d="M259.858,325.584l-.343-7.235a5.007,5.007,0,0,0-4.417-4.741l-6.112-.7a5.008,5.008,0,0,0-5.579,4.493l-.857,9.063,4.741,13.652,8.739.952C262.638,338.379,259.858,325.584,259.858,325.584Z" fill="#ce7a63"/>
        <path id="Path_178" data-name="Path 178" d="M117.458,781.573l10.3,2.723,1.58-.857,1.6,1.676c6.283,1.656,14.832,3.656,19.23,3.351a2.7,2.7,0,0,0-.133-2.856s-15.232-9.52-15.879-13.328l-12.624-3.332" fill="#263238"/>
        <path id="Path_179" data-name="Path 179" d="M230.993,794.235h10.643l1.314-1.219,1.9,1.219c6.493,0,19.8-.248,23.971-1.656a2.7,2.7,0,0,0-.857-2.723s-19.421-5.331-20.944-8.911H231.679" fill="#263238"/>
        <path id="Path_180" data-name="Path 180" d="M155.062,642.429c2.132-55.083-2.951-89.488,6.816-118.6l48.723-7.844s-8.987,93.3-19.764,131.909-48.19,107.138-48.19,107.138L126.6,750.766S140.706,687.63,155.062,642.429Z" fill="#263238"/>
        <path id="Path_181" data-name="Path 181" d="M193.275,562.175l9.063,23.476c-2.894,20.582-6.359,41.621-10.072,56.777C188.306,614.992,191.181,569.905,193.275,562.175Z" opacity="0.2"/>
        <path id="Path_182" data-name="Path 182" d="M209.573,646.941a480.1,480.1,0,0,1-32.368-125.569l53.312-8.7S238.4,608.9,241.941,648.464c3.6,41.126,3.808,114.526,3.808,114.526l-17.574,3.484S211.344,698.083,209.573,646.941Z" fill="#263238"/>
        <path id="Path_183" data-name="Path 183" d="M157.423,372.308c3.142,10.129,5.712,27.418,2.666,35.681,5.9,4.056,14.528,6.074,25.7,4.265s8.663-6.34,5.084-9.806c-8.606-2.856-7.844-12.376-6.4-16.26Z" fill="#ce7a63"/>
        <path id="Path_184" data-name="Path 184" d="M186.592,360.256c.324.99,1.123,1.618,1.771,1.409s.914-1.219.59-2.209-1.123-1.618-1.771-1.409S186.249,359.266,186.592,360.256Z" fill="#263238"/>
        <path id="Path_185" data-name="Path 185" d="M186.973,361.76a37.052,37.052,0,0,0,7.616,6.912,6.055,6.055,0,0,1-4.436,2.494Z" fill="#ba4d3c"/>
        <path id="Path_186" data-name="Path 186" d="M186.592,353.382a.59.59,0,0,1-.476.343,4.817,4.817,0,0,0-3.808,2.4.628.628,0,0,1-.838.286.647.647,0,0,1-.286-.819,6.055,6.055,0,0,1,4.684-3.084.609.609,0,0,1,.685.533.533.533,0,0,1,.038.343Z" fill="#263238"/>
        <path id="Path_187" data-name="Path 187" d="M152.092,368.748c4.779,11.957,6.969,19.211,15.232,23.4,12.376,6.3,25.609-4.417,24.5-17.593-1.009-11.881-8.644-29.455-22.182-30.274a17.783,17.783,0,0,0-17.555,24.466Z" fill="#ce7a63"/>
        <path id="Path_188" data-name="Path 188" d="M176.653,367.681c5.712-2,6.34-9.1,4.113-10.472,5.084-5.921,10.339-17.574-2.056-19.783s-19.326.457-23.952,1.161a18.657,18.657,0,0,0,5.6,1.809c-8.111.743-15.232,7.464-20.944,11.215a18.471,18.471,0,0,0,5.388.457s-8.777,7.464-1.485,12.757c-3.161,2.532,4.455,18.564,17.783,25.095,14.585-.133,13.747-4.036,13.747-4.036S184.06,373.279,176.653,367.681Z" fill="#263238"/>
        <path id="Path_189" data-name="Path 189" d="M172.693,369.376a10.872,10.872,0,0,0,6.607,4.474c3.389.647,4.436-2.78,2.932-6.093-1.352-2.97-4.741-6.912-7.883-6.055S170.694,366.406,172.693,369.376Z" fill="#ce7a63"/>
        <path id="Path_190" data-name="Path 190" d="M149.883,407.761c17.136-4.684,41.7-8.092,58.472-7.616a18.754,18.754,0,0,1,17.688,14.6c5.712,24.638,6.55,69.02,8.206,113.593-36.576,18.526-77.531,11.176-77.531,11.176-2.152-8.739-1.618-38.423-.914-54.359-4.532-15.651-12.757-33.149-19.04-53.921a18.773,18.773,0,0,1,13.119-23.476Z" fill="#2DADC2"/>
        <path id="Path_191" data-name="Path 191" d="M227.261,420.784l-20.411,6.873c7.768,5.084,15.232,5.255,22.182,5.084C228.48,428.4,227.928,424.364,227.261,420.784Z" opacity="0.2"/>
        <path id="Path_192" data-name="Path 192" d="M227.242,526.494c-.647-30.045-4.532-91.6-9.958-107.328l.895-.3c5.464,15.822,9.368,77.512,10.015,107.614Z" fill="#fff" opacity="0.5"/>
        <path id="Path_193" data-name="Path 193" d="M209.821,401.592l5.522-2.285c1.9-.838,3.808-1.656,5.712-2.532,3.808-1.714,7.445-3.58,10.948-5.5a82.367,82.367,0,0,0,9.52-6.131,31.435,31.435,0,0,0,6.264-6.093l-.857,2.037a24.866,24.866,0,0,0,1.9-8.149,74.565,74.565,0,0,0,0-10.91c-.228-3.808-.7-7.787-1.257-11.786s-1.257-8.13-1.9-11.957v-.5a7.368,7.368,0,0,1,13.518-5.1,97.489,97.489,0,0,1,6.512,12.148,106.121,106.121,0,0,1,4.893,13.023,75.373,75.373,0,0,1,2.913,14.432,46.1,46.1,0,0,1-1.238,17.136,5.713,5.713,0,0,1-.438,1.181l-.419.857a50.57,50.57,0,0,1-11.424,14.908,87.052,87.052,0,0,1-12.89,9.882,119.112,119.112,0,0,1-13.328,7.407c-2.285,1.085-4.551,2.133-6.892,3.065-1.161.476-2.342.933-3.522,1.371s-2.3.838-3.808,1.333a14.7,14.7,0,0,1-10.3-27.513Z" fill="#cf7a64"/>
        <path id="Path_194" data-name="Path 194" d="M273.129,534.776l-.876-.381c.7-1.58,1.58-3.427,2.589-5.579a172.732,172.732,0,0,0,10.072-24.752l.914.267a173.972,173.972,0,0,1-10.129,24.98C274.69,531.368,273.814,533.215,273.129,534.776Z" fill="#2DADC2"/>
        <path id="Path_195" data-name="Path 195" d="M290.4,487.024l-.933-.209c9.234-38.9,18.907-110.87-20.106-155.842l.724-.628C309.362,375.64,299.671,447.954,290.4,487.024Z" fill="#2DADC2"/>
      </g>
      <g id="freepik--character-2--inject-12">
        <path id="Path_196" data-name="Path 196" d="M786.961,399.421c-10.377-11.538-30.464-6.131-41.679,1.695l2.856,9.2c11.71-3.123,13.214,10.434,18.3,24.009,7.254,19.307,32.787,30.845,52.4,8.625C790.769,437.711,795.644,409.074,786.961,399.421Z" fill="#263238"/>
        <path id="Path_197" data-name="Path 197" d="M812.741,438.967a9.14,9.14,0,0,1-2.171-.247c-7.978-1.9-12.871-13.652-17.136-24.067-2.589-6.245-5.046-12.148-7.616-14.775-10.72-10.567-29.988-3.808-40.251,4.265a.952.952,0,0,1-1.333-.152.99.99,0,0,1,.152-1.352c10.815-8.549,31.226-15.5,42.764-4.113,2.932,2.894,5.445,8.968,8.111,15.4,4.132,9.977,8.815,21.287,15.841,22.848,3.294.781,6.893-.609,10.986-4.189a.952.952,0,0,1,1.352,0,.971.971,0,0,1-.1,1.352C819.539,437.33,816.016,438.967,812.741,438.967Z" fill="#263238"/>
        <path id="Path_198" data-name="Path 198" d="M744.75,398.145c7.083-1.695,12.338,2.056,11.633,8.987s-6.55,8.149-8.568,5.084S744.75,398.145,744.75,398.145Z" fill="#2DADC2"/>
        <path id="Path_199" data-name="Path 199" d="M706.041,411.264a17.307,17.307,0,0,1,12.662-20.2c11.215-2.38,24.885-.209,31.34,9.52s-3.694,36.176-19.783,35.757C707.964,435.654,706.041,411.264,706.041,411.264Z" fill="#263238"/>
        <path id="Path_200" data-name="Path 200" d="M722.758,540.2s-7.959,57.425-15.08,95.2c-7.483,39.622-35.414,128.958-36.614,131.643l10.548,4.665s47.6-75.4,48.628-121.989c18.526-28.427,29.017-60.719,32.368-79.111,4.132-23.248-5.122-43.982-5.122-43.982Z" fill="#2DADC2"/>
        <path id="Path_201" data-name="Path 201" d="M752.613,565.888a2.552,2.552,0,0,0-.133.343c-4.018,8.4-6.131,23.4-6.131,37.452a120.624,120.624,0,0,0,.838,14.528A236.727,236.727,0,0,0,760.4,580.358Z" opacity="0.2"/>
        <path id="Path_202" data-name="Path 202" d="M664.972,780.183a91.525,91.525,0,0,0,6.093-13.195,18.317,18.317,0,0,1,10.548,4.665c-2.875,6.188-6.207,11.748-6.207,11.748Z" fill="#ffb573"/>
        <path id="Path_203" data-name="Path 203" d="M719.541,474.1v3.656c0,1.142-.114,2.285-.209,3.408-.19,2.266-.476,4.493-.876,6.721a67.987,67.987,0,0,1-3.808,13.176,56.7,56.7,0,0,1-6.721,12.376,50.808,50.808,0,0,1-4.608,5.541c-.876.838-1.714,1.714-2.647,2.494l-.685.609-.343.286-.59.514a12.489,12.489,0,0,1-3.808,2.075,17.441,17.441,0,0,1-5.6.895,27.311,27.311,0,0,1-4.151-.343,51.857,51.857,0,0,1-6.854-1.58,100.683,100.683,0,0,1-11.938-4.531A165.661,165.661,0,0,1,645.056,507.7a4.741,4.741,0,0,1,4-8.53h.114c7.407,2.418,14.984,4.779,22.353,6.835,3.675,1.009,7.368,1.9,10.853,2.513a34.636,34.636,0,0,0,4.874.571,10.592,10.592,0,0,0,1.9,0c.438,0,.724-.209.267-.114a3.808,3.808,0,0,0-1.219.647s-.171.171-.133.114h.1l.209-.228.4-.419c.552-.552,1.028-1.18,1.523-1.771a42.938,42.938,0,0,0,2.723-3.808,48.125,48.125,0,0,0,4.075-8.854,64.045,64.045,0,0,0,2.437-9.882c.3-1.676.533-3.408.685-5.1,0-.857.133-1.714.171-2.551v-2.856a9.52,9.52,0,0,1,19.04,0Z" fill="#ffb573"/>
        <path id="Path_204" data-name="Path 204" d="M772,523.848s13.042,8.587,17.859,31.7c3.808,18.278,1.352,46.286-2.3,84.4,21.192,38.08,3.046,130.1,3.046,130.1H779.079c.133-2.932-11.234-92.287-19.04-131.852-7.426-37.661-27.018-109.347-27.018-109.347Z" fill="#2DADC2"/>
        <path id="Path_205" data-name="Path 205" d="M777.194,782.544s1.9-3.027,1.9-12.928c0,0,6.892-1.752,11.519.4-.362,6.835-.914,13.442-.914,13.442Z" fill="#ffb573"/>
        <path id="Path_206" data-name="Path 206" d="M790.56,778.907H777.232a1.1,1.1,0,0,0-.761.267,59.636,59.636,0,0,1-17.688,7.616,4.189,4.189,0,0,0-2.97,2.97h33.739a2.932,2.932,0,0,0,2.894-3.5,33.827,33.827,0,0,1-.685-6.188A1.238,1.238,0,0,0,790.56,778.907Z" fill="#263238"/>
        <path id="Path_207" data-name="Path 207" d="M677.824,778.907H664.5a1.123,1.123,0,0,0-.762.267,59.366,59.366,0,0,1-17.688,7.616,4.208,4.208,0,0,0-2.97,2.97h33.758a2.932,2.932,0,0,0,2.894-3.408,37.521,37.521,0,0,1-.685-6.188,1.219,1.219,0,0,0-1.219-1.257Z" fill="#263238"/>
        <path id="Path_208" data-name="Path 208" d="M701,480.722c1.276,4.95-4.189,18.145,6.95,22.848a222.54,222.54,0,0,0,14.813,36.69L772,523.9C763.5,506.94,763.5,498.01,763.5,464.424a13.081,13.081,0,0,0-14.508-13c-2.056.209-4.246.5-6.474.857a165.651,165.651,0,0,0-23.038,4.855c-2.437.743-4.95,1.6-7.33,2.456A17.8,17.8,0,0,0,701,480.722Z" fill="#263238"/>
        <path id="Path_209" data-name="Path 209" d="M734.811,426.8c.1,7.73,1.5,21.61,7.73,25.476,0,0-16.508,8.454-22.372,23.743-6.436-9.2-.666-18.888-.666-18.888,7.844-3.808,6.34-9.806,3.694-15.232Z" fill="#ffb573"/>
        <path id="Path_210" data-name="Path 210" d="M752.746,465.166h0l10.8,6.017h0l.152,14.908h0c-4.874-5.331-10.224-15.118-10.929-20.792v-.152Z" opacity="0.2"/>
        <path id="Path_211" data-name="Path 211" d="M730.07,432.951l-6.873,8.911a23.993,23.993,0,0,1,1.58,3.941c3.065-1.123,6.664-5.522,6.3-8.892a10.986,10.986,0,0,0-1.009-3.96Z" opacity="0.2"/>
        <path id="Path_212" data-name="Path 212" d="M739.761,411.55c-.362,12.681-.247,18.05-6.3,24.752-9.1,10.072-24.276,6.835-27.646-5.712-3.027-11.272-1.9-30.1,10.034-35.529a17.022,17.022,0,0,1,23.914,16.489Z" fill="#ffb573"/>
        <path id="Path_213" data-name="Path 213" d="M717.084,392.757c6.55,16.527,22.848,18.24,22.41,26.846C746.12,409.779,741.037,389.692,717.084,392.757Z" fill="#263238"/>
        <path id="Path_214" data-name="Path 214" d="M720.931,415.453c0,1.028-.5,1.9-1.161,1.9s-1.238-.8-1.276-1.9.476-1.9,1.161-1.9S720.893,414.425,720.931,415.453Z" fill="#263238"/>
        <path id="Path_215" data-name="Path 215" d="M708.288,416.043c0,1.028-.476,1.9-1.161,1.9s-1.238-.8-1.276-1.9.5-1.9,1.161-1.9S708.288,415.072,708.288,416.043Z" fill="#263238"/>
        <path id="Path_216" data-name="Path 216" d="M707.3,414.253l-2.494-.628S706.136,415.51,707.3,414.253Z" fill="#263238"/>
        <path id="Path_217" data-name="Path 217" d="M712.286,417.109a27.339,27.339,0,0,1-3.465,6.683,4.455,4.455,0,0,0,3.694.571Z" fill="#ed893e"/>
        <path id="Path_218" data-name="Path 218" d="M719.122,428.5a11.768,11.768,0,0,1-1.733.19.267.267,0,0,1-.3-.286.3.3,0,0,1,.286-.324,8.13,8.13,0,0,0,6.55-3.389.3.3,0,1,1,.514.3A8.473,8.473,0,0,1,719.122,428.5Z" fill="#263238"/>
        <path id="Path_219" data-name="Path 219" d="M742.446,420.955a8.13,8.13,0,0,1-5.141,4.3c-2.818.7-4.132-2.418-3.237-5.522.8-2.8,3.237-6.531,6.036-5.826S743.817,418.233,742.446,420.955Z" fill="#ffb573"/>
        <path id="Path_220" data-name="Path 220" d="M724.053,409.512a.666.666,0,0,1-.419-.228,4.817,4.817,0,0,0-3.922-1.9.628.628,0,0,1-.666-.552.609.609,0,0,1,.552-.647,5.979,5.979,0,0,1,4.988,2.38.59.59,0,0,1-.1.838.552.552,0,0,1-.438.114Z" fill="#263238"/>
        <path id="Path_221" data-name="Path 221" d="M705.07,409.512a.7.7,0,0,1-.438,0,.628.628,0,0,1-.209-.838,5.978,5.978,0,0,1,4.665-2.951.6.6,0,1,1,.038,1.2,4.855,4.855,0,0,0-3.675,2.38.571.571,0,0,1-.381.209Z" fill="#263238"/>
        <path id="Path_222" data-name="Path 222" d="M719.94,413.663l-2.494-.628S718.779,414.92,719.94,413.663Z" fill="#263238"/>
        <path id="Path_223" data-name="Path 223" d="M767.464,529.674a9.291,9.291,0,0,0-6.816-4.17l-3.351-.362a11.272,11.272,0,0,0-9.768,3.922h0a4.036,4.036,0,0,0-.457,4.57l2.342,4.284a4.075,4.075,0,0,0,5.236,1.733l2.151-.971s7.959-2.551,11.614-7.616Z" fill="#ffb573"/>
        <path id="Path_224" data-name="Path 224" d="M758.877,454.275c2.037,1.257,3.618,2.3,5.312,3.541s3.294,2.418,4.912,3.694a119.919,119.919,0,0,1,9.253,8.111,90.721,90.721,0,0,1,15.613,19.821q.8,1.4,1.542,2.913c.267.476.476.99.724,1.485l.362.762.209.476c.152.362.3.7.438,1.066a13.211,13.211,0,0,1,.685,4.132,14.718,14.718,0,0,1-.381,3.332,19.043,19.043,0,0,1-1.809,4.627,42.382,42.382,0,0,1-8.968,10.567,105.7,105.7,0,0,1-19.859,13.728,4.76,4.76,0,0,1-5.712-7.464l.133-.152c5.122-5.331,10.377-10.853,14.756-16.317,1.085-1.352,2.075-2.742,2.951-4.056a18.542,18.542,0,0,0,1.9-3.56c.152-.457.171-.8.114-.762a1.029,1.029,0,0,0-.114.5,3.675,3.675,0,0,0,.19,1.314,3.265,3.265,0,0,0,.133.4c0,.114,0-.114-.1-.152l-.3-.533c-.209-.343-.381-.685-.609-1.028-.438-.685-.857-1.371-1.333-2.056a87.319,87.319,0,0,0-13.671-15.232c-2.589-2.38-5.331-4.627-8.111-6.854-1.39-1.1-2.818-2.171-4.246-3.218s-2.951-2.113-4.151-2.913l-.229-.152A9.52,9.52,0,0,1,758.8,454.275Z" fill="#ffb573"/>
        <path id="Path_225" data-name="Path 225" d="M649.988,500.181l-2.132-2.589a11.291,11.291,0,0,0-9.729-4.113h0a4.056,4.056,0,0,0-3.541,2.932l-1.352,4.684a4.056,4.056,0,0,0,2.494,4.912l2.228.838s7.445,3.808,13.557,2.8l.362-1.695A9.291,9.291,0,0,0,649.988,500.181Z" fill="#ffb573"/>
        <path id="Path_226" data-name="Path 226" d="M663.392,481.826c-1.9,8.8-9.844,12.776-18.316,11.005s-14.2-8.625-12.376-17.422,10.567-16.184,19.04-14.413S665.239,473.03,663.392,481.826Z" fill="#2DADC2"/>
        <path id="Path_227" data-name="Path 227" d="M653.929,492.508,637.1,489a16.756,16.756,0,0,0,4.056,2.589,1.161,1.161,0,0,1,.666,1.276l-3.808,16.565c-.343,1.428,6.816,2.913,7.083,1.485l3.065-16.736a1.1,1.1,0,0,1,1.1-.914A16.4,16.4,0,0,0,653.929,492.508Z" fill="#2DADC2"/>
        <path id="Path_228" data-name="Path 228" d="M653.929,492.508,637.1,489a16.756,16.756,0,0,0,4.056,2.589,1.161,1.161,0,0,1,.666,1.276l-3.808,16.565c-.343,1.428,6.816,2.913,7.083,1.485l3.065-16.736a1.1,1.1,0,0,1,1.1-.914A16.4,16.4,0,0,0,653.929,492.508Z" fill="#fff" opacity="0.6"/>
        <path id="Path_229" data-name="Path 229" d="M651.416,500.543c-1.142-5.864-6.321-7.292-10-9.634-.609-.4-2.209.762-1.695,2a6.017,6.017,0,0,0,3.1,3.656,7.445,7.445,0,0,0,5.464,8.378A7.616,7.616,0,0,0,651.416,500.543Z" fill="#ffb573"/>
        <path id="Path_230" data-name="Path 230" d="M764.513,520.858c-2.418,1.6-6.378,3.808-5.426,5.712s4.589,8.3,6.721,7.825a13.593,13.593,0,0,0,6.759-4.455C774.014,527.979,766,519.906,764.513,520.858Z" fill="#fff"/>
      </g>
      <g id="freepik--Table--inject-12">
        <path id="Path_231" data-name="Path 231" d="M311.837,605.586h5.921V782.125a2.951,2.951,0,0,1-2.97,2.951h0a2.932,2.932,0,0,1-2.951-2.951Z" fill="#263238"/>
        <path id="Path_232" data-name="Path 232" d="M282.439,626.416h5.921V798.328a2.951,2.951,0,0,1-2.951,2.97h0a2.97,2.97,0,0,1-2.97-2.97Z" fill="#263238"/>
        <path id="Path_233" data-name="Path 233" d="M314.788,658.594,285.41,670.3V654l29.379-11.71Z" fill="#263238"/>
        <path id="Path_234" data-name="Path 234" d="M640.163,605.586h-5.921V782.125a2.951,2.951,0,0,0,2.97,2.951h0a2.932,2.932,0,0,0,2.951-2.951Z" fill="#263238"/>
        <path id="Path_235" data-name="Path 235" d="M669.561,626.416h-5.921V798.328a2.951,2.951,0,0,0,2.951,2.97h0a2.97,2.97,0,0,0,2.97-2.97Z" fill="#263238"/>
        <path id="Path_236" data-name="Path 236" d="M637.212,658.594,666.59,670.3V654L637.212,642.3Z" fill="#263238"/>
        <path id="Path_237" data-name="Path 237" d="M476,603.32h0a2.551,2.551,0,0,1-2.532-2.532V578.416A2.551,2.551,0,0,1,476,575.884h0a2.551,2.551,0,0,1,2.532,2.532v22.372A2.551,2.551,0,0,1,476,603.32Z"/>
        <path id="Path_238" data-name="Path 238" d="M716.532,619.314H235.468l94.515-29.7H622.037Z" fill="#2DADC2"/>
        <path id="Path_239" data-name="Path 239" d="M657.984,600.9h0l-35.948-11.291H329.963L294.016,600.9l-2.494.781-56.054,17.631H716.532l-56.054-17.65h0ZM333.752,590.24h284.5L651.416,601H300.584Zm370.556,27.913H247.691l50.475-16.489H653.834Z" fill="#fff" opacity="0.8"/>
        <rect id="Rectangle_52" data-name="Rectangle 52" width="481.084" height="7.197" transform="translate(235.468 619.314)" fill="#2DADC2"/>
        <rect id="Rectangle_53" data-name="Rectangle 53" width="481.084" height="7.197" transform="translate(235.468 619.314)" opacity="0.2"/>
        <path id="Path_240" data-name="Path 240" d="M476,615.278h0a1.066,1.066,0,0,1-1.066-1.047V569.125A1.066,1.066,0,0,1,476,568.078h0a1.066,1.066,0,0,1,1.066,1.047V614.23A1.066,1.066,0,0,1,476,615.278Z" fill="#2DADC2"/>
        <path id="Path_241" data-name="Path 241" d="M476,615.278h0a1.066,1.066,0,0,1-1.066-1.047V569.125A1.066,1.066,0,0,1,476,568.078h0a1.066,1.066,0,0,1,1.066,1.047V614.23A1.066,1.066,0,0,1,476,615.278Z" fill="#fff" opacity="0.9"/>
        <path id="Path_242" data-name="Path 242" d="M476,633.042h0a2.551,2.551,0,0,1-2.532-2.551V608.119A2.551,2.551,0,0,1,476,605.586h0a2.551,2.551,0,0,1,2.532,2.532v22.372A2.551,2.551,0,0,1,476,633.042Z"/>
        <path id="Path_243" data-name="Path 243" d="M560.043,512.652c1.238,2.837-1.142,6.607-5.331,8.435s-8.568,1.009-9.787-1.9,1.142-6.607,5.312-8.435S558.8,509.834,560.043,512.652Z" fill="#fff"/>
        <path id="Path_244" data-name="Path 244" d="M550.256,522.534a9.394,9.394,0,0,1-1.656-.152,4.912,4.912,0,0,1-3.465-7.978,11.138,11.138,0,0,1,4.893-4.017,11.024,11.024,0,0,1,6.283-.857,5.369,5.369,0,0,1,4.151,2.932c1.333,3.065-1.161,7.14-5.579,9.063A11.671,11.671,0,0,1,550.256,522.534Zm4.4-12.2a10.832,10.832,0,0,0-4.246.933,10.168,10.168,0,0,0-4.474,3.656,3.96,3.96,0,0,0,2.856,6.531,10.034,10.034,0,0,0,5.712-.8c3.941-1.714,6.207-5.217,5.084-7.806a4.417,4.417,0,0,0-3.446-2.38,9.368,9.368,0,0,0-1.466-.19Z" fill="#2DADC2"/>
        <path id="Path_245" data-name="Path 245" d="M438.586,580.377l-.609-.724c18.85-15.689,51.675-38.175,100.912-56.244l.324.895C490.109,542.335,457.379,564.745,438.586,580.377Z" fill="#2DADC2"/>
        <path id="Path_246" data-name="Path 246" d="M404.809,582.757a320.083,320.083,0,0,0-48.4-29.74l.419-.857A321.122,321.122,0,0,1,405.381,582Z" fill="#2DADC2"/>
        <path id="Path_247" data-name="Path 247" d="M341.349,546.448a164.515,164.515,0,0,0-16.85-5.712l.266-.914a167.8,167.8,0,0,1,16.946,5.712Z" fill="#2DADC2"/>
        <path id="Path_248" data-name="Path 248" d="M516.365,523.981l-.286-.895a167.081,167.081,0,0,1,17.307-4.512l.19.933A171.542,171.542,0,0,0,516.365,523.981Z" fill="#2DADC2"/>
      </g>
    </g>
  </g>
</svg>
